<?xml version="1.0" encoding="UTF-8" standalone="no"?>
<svg
   xmlns:dc="http://purl.org/dc/elements/1.1/"
   xmlns:cc="http://creativecommons.org/ns#"
   xmlns:rdf="http://www.w3.org/1999/02/22-rdf-syntax-ns#"
   xmlns:svg="http://www.w3.org/2000/svg"
   xmlns="http://www.w3.org/2000/svg"
   xmlns:sodipodi="http://sodipodi.sourceforge.net/DTD/sodipodi-0.dtd"
   xmlns:inkscape="http://www.inkscape.org/namespaces/inkscape"
   width="210mm"
   height="297mm"
   viewBox="0 0 210 297"
   version="1.1"
   id="svg8"
   inkscape:version="1.0.1 (c497b03c, 2020-09-10)"
   sodipodi:docname="dessin.svg">
  <defs
     id="defs2" />
  <sodipodi:namedview
     id="base"
     pagecolor="#ffffff"
     bordercolor="#666666"
     borderopacity="1.0"
     inkscape:pageopacity="0.0"
     inkscape:pageshadow="2"
     inkscape:zoom="1.1137141"
     inkscape:cx="364.47586"
     inkscape:cy="521.1777"
     inkscape:document-units="mm"
     inkscape:current-layer="layer1"
     inkscape:document-rotation="0"
     showgrid="false"
     inkscape:window-width="1411"
     inkscape:window-height="855"
     inkscape:window-x="0"
     inkscape:window-y="23"
     inkscape:window-maximized="0" />
  <metadata
     id="metadata5">
    <rdf:RDF>
      <cc:Work
         rdf:about="">
        <dc:format>image/svg+xml</dc:format>
        <dc:type
           rdf:resource="http://purl.org/dc/dcmitype/StillImage" />
        <dc:title></dc:title>
      </cc:Work>
    </rdf:RDF>
  </metadata>
  <g
     inkscape:label="Calque 1"
     inkscape:groupmode="layer"
     id="layer1">
    <path
       style="opacity:0.503916;fill:#ff0000;stroke-width:1"
       d="m 674.81055,416.08008 a 272.89324,26.565933 0 0 1 0.002,0.0195 l 0.0195,-0.0195 z"
       transform="scale(0.26458333)"
       id="path1002" />
    <path
       style="opacity:0.503916;fill:#ff0000;stroke-width:1"
       d="m 129.04492,416.08008 0.0176,0.0176 a 272.89324,26.565933 0 0 1 0.002,-0.0176 z"
       transform="scale(0.26458333)"
       id="rect837" />
    <path
       style="opacity:0.746736;fill:#6c6c6c;stroke-width:0.434758;stroke:#cccccc;fill-opacity:1"
       d="m 178.54922,110.17461 a 72.203003,7.028903 0 0 1 -72.203,7.0289 72.203003,7.028903 0 0 1 -72.203001,-7.0289 72.203003,7.028903 0 0 1 72.203001,-7.02891 72.203003,7.028903 0 0 1 72.203,7.02891 z"
       id="path892" />
    <path
       style="opacity:0.746736;fill:#b3b3b3;stroke-width:0.125548"
       d="m 127.19679,161.37727 a 20.850569,2.0297859 0 0 1 -20.85057,2.02979 20.850569,2.0297859 0 0 1 -20.850567,-2.02979 20.850569,2.0297859 0 0 1 20.850567,-2.02978 20.850569,2.0297859 0 0 1 20.85057,2.02978 z"
       id="ellipse972" />
    <path
       id="path1004"
       style="opacity:1;fill:#cccccc;stroke-width:1;stroke:#cccccc"
       d="M 134.79883 421.83398 L 323.19336 610.22852 L 323.19531 610.23047 A 78.8053 7.6716317 0 0 0 401.9375 617.60156 A 78.8053 7.6716317 0 0 0 480.69922 610.1875 A 78.805298 7.6716315 0 0 1 480.68555 610.22656 L 669.07422 421.83789 A 272.89324 26.565933 0 0 1 401.9375 442.97461 A 272.89324 26.565933 0 0 1 134.79883 421.83398 z M 399.47852 602.26172 A 78.8053 7.6716317 0 0 0 397.71484 602.26953 A 78.805298 7.6716315 0 0 1 399.47852 602.26172 z M 396.82422 602.27344 A 78.8053 7.6716317 0 0 0 395.06445 602.28711 A 78.805298 7.6716315 0 0 1 396.82422 602.27344 z M 392.41602 602.31445 A 78.8053 7.6716317 0 0 0 389.78906 602.34961 A 78.805298 7.6716315 0 0 1 392.41602 602.31445 z M 388.91016 602.36328 A 78.8053 7.6716317 0 0 0 386.30273 602.41016 A 78.805298 7.6716315 0 0 1 388.91016 602.36328 z M 415.17383 602.36719 A 78.805298 7.6716315 0 0 1 417.75391 602.41406 A 78.8053 7.6716317 0 0 0 415.17383 602.36719 z M 385.42969 602.42773 A 78.8053 7.6716317 0 0 0 382.84766 602.48633 A 78.805298 7.6716315 0 0 1 385.42969 602.42773 z M 420.38477 602.4707 A 78.805298 7.6716315 0 0 1 422.91406 602.53516 A 78.8053 7.6716317 0 0 0 420.38477 602.4707 z M 381.98438 602.50781 A 78.8053 7.6716317 0 0 0 380.28125 602.55273 A 78.805298 7.6716315 0 0 1 381.98438 602.50781 z M 423.78906 602.55859 A 78.805298 7.6716315 0 0 1 426.32812 602.63477 A 78.8053 7.6716317 0 0 0 423.78906 602.55859 z M 379.42578 602.57812 A 78.8053 7.6716317 0 0 0 377.74023 602.62891 A 78.805298 7.6716315 0 0 1 379.42578 602.57812 z M 377.73438 602.62891 A 78.8053 7.6716317 0 0 0 376.06055 602.68359 A 78.805298 7.6716315 0 0 1 377.73438 602.62891 z M 376.05469 602.68359 A 78.8053 7.6716317 0 0 0 374.39453 602.74219 A 78.805298 7.6716315 0 0 1 376.05469 602.68359 z M 374.38867 602.74219 A 78.8053 7.6716317 0 0 0 371.91992 602.83594 A 78.805298 7.6716315 0 0 1 374.38867 602.74219 z M 437.01562 603.06055 A 78.805298 7.6716315 0 0 1 438.51562 603.13477 A 78.8053 7.6716317 0 0 0 437.01562 603.06055 z M 438.5957 603.13867 A 78.805298 7.6716315 0 0 1 440.07227 603.2168 A 78.8053 7.6716317 0 0 0 438.5957 603.13867 z M 363.93359 603.20898 A 78.8053 7.6716317 0 0 0 362.39648 603.29297 A 78.805298 7.6716315 0 0 1 363.93359 603.20898 z M 440.88672 603.25977 A 78.805298 7.6716315 0 0 1 442.41602 603.34766 A 78.8053 7.6716317 0 0 0 440.88672 603.25977 z M 361.62695 603.33789 A 78.8053 7.6716317 0 0 0 360.12109 603.42773 A 78.805298 7.6716315 0 0 1 361.62695 603.33789 z M 359.36914 603.47266 A 78.8053 7.6716317 0 0 0 357.89453 603.56836 A 78.805298 7.6716315 0 0 1 359.36914 603.47266 z M 445.41406 603.53125 A 78.805298 7.6716315 0 0 1 447.60547 603.67773 A 78.805298 7.6716315 0 0 1 449.03711 603.7793 A 78.8053 7.6716317 0 0 0 447.60547 603.67773 A 78.8053 7.6716317 0 0 0 445.41406 603.53125 z M 353.58594 603.87109 A 78.8053 7.6716317 0 0 0 352.20508 603.97852 A 78.805298 7.6716315 0 0 1 353.58594 603.87109 z M 451.18945 603.94141 A 78.805298 7.6716315 0 0 1 453.1875 604.10156 A 78.8053 7.6716317 0 0 0 451.18945 603.94141 z M 350.83789 604.08984 A 78.8053 7.6716317 0 0 0 349.50781 604.20312 A 78.805298 7.6716315 0 0 1 350.83789 604.08984 z M 457.78906 604.51758 A 78.805298 7.6716315 0 0 1 458.91406 604.62891 A 78.8053 7.6716317 0 0 0 457.78906 604.51758 z M 459.0332 604.64062 A 78.805298 7.6716315 0 0 1 460.17773 604.76172 A 78.8053 7.6716317 0 0 0 459.0332 604.64062 z M 344.43359 604.68359 A 78.8053 7.6716317 0 0 0 343.24023 604.81055 A 78.805298 7.6716315 0 0 1 344.43359 604.68359 z M 463.12695 605.0957 A 78.805298 7.6716315 0 0 1 464.16992 605.22266 A 78.8053 7.6716317 0 0 0 463.12695 605.0957 z M 339.28516 605.27539 A 78.8053 7.6716317 0 0 0 338.23047 605.41406 A 78.805298 7.6716315 0 0 1 339.28516 605.27539 z M 464.70898 605.29102 A 78.805298 7.6716315 0 0 1 465.76367 605.42969 A 78.8053 7.6716317 0 0 0 464.70898 605.29102 z M 466.78711 605.57031 A 78.805298 7.6716315 0 0 1 468.66992 605.84961 A 78.8053 7.6716317 0 0 0 466.78711 605.57031 z M 334.7793 605.91602 A 78.8053 7.6716317 0 0 0 333.43164 606.13867 A 78.805298 7.6716315 0 0 1 334.7793 605.91602 z M 470.10547 606.08008 A 78.805298 7.6716315 0 0 1 470.97656 606.23047 A 78.8053 7.6716317 0 0 0 470.10547 606.08008 z M 331.74609 606.44141 A 78.8053 7.6716317 0 0 0 330.96289 606.5957 A 78.805298 7.6716315 0 0 1 331.74609 606.44141 z M 472.21875 606.45898 A 78.805298 7.6716315 0 0 1 473.00195 606.61328 A 78.8053 7.6716317 0 0 0 472.21875 606.45898 z M 473.75 606.76953 A 78.805298 7.6716315 0 0 1 474.46094 606.92773 A 78.8053 7.6716317 0 0 0 473.75 606.76953 z M 328.81445 607.06836 A 78.8053 7.6716317 0 0 0 328.17383 607.23047 A 78.805298 7.6716315 0 0 1 328.81445 607.06836 z M 475.77344 607.24805 A 78.805298 7.6716315 0 0 1 476.37305 607.41016 A 78.8053 7.6716317 0 0 0 475.77344 607.24805 z M 477.46094 607.73828 A 78.805298 7.6716315 0 0 1 477.94727 607.9043 A 78.8053 7.6716317 0 0 0 477.46094 607.73828 z M 478.17773 607.98828 A 78.805298 7.6716315 0 0 1 478.60547 608.1543 A 78.8053 7.6716317 0 0 0 478.17773 607.98828 z M 478.80664 608.23828 A 78.805298 7.6716315 0 0 1 479.34766 608.49219 A 78.8053 7.6716317 0 0 0 478.80664 608.23828 z M 479.66016 608.66211 A 78.805298 7.6716315 0 0 1 479.93359 608.83203 A 78.8053 7.6716317 0 0 0 479.66016 608.66211 z M 480.05469 608.91797 A 78.805298 7.6716315 0 0 1 480.36133 609.17383 A 78.8053 7.6716317 0 0 0 480.05469 608.91797 z M 323.37695 609.32617 A 78.8053 7.6716317 0 0 0 323.25781 609.49805 A 78.805298 7.6716315 0 0 1 323.37695 609.32617 z M 480.74414 609.92969 A 78.805298 7.6716315 0 0 1 480.72461 610.10156 A 78.8053 7.6716317 0 0 0 480.74414 609.92969 z M 323.15625 610.11328 A 78.8053 7.6716317 0 0 0 323.16992 610.16016 A 78.805298 7.6716315 0 0 1 323.15625 610.11328 z "
       transform="scale(0.26458333)" />
  </g>
</svg>
