<?xml version="1.0" encoding="UTF-8" standalone="no"?>
<svg
   xmlns:dc="http://purl.org/dc/elements/1.1/"
   xmlns:cc="http://creativecommons.org/ns#"
   xmlns:rdf="http://www.w3.org/1999/02/22-rdf-syntax-ns#"
   xmlns:svg="http://www.w3.org/2000/svg"
   xmlns="http://www.w3.org/2000/svg"
   xmlns:sodipodi="http://sodipodi.sourceforge.net/DTD/sodipodi-0.dtd"
   xmlns:inkscape="http://www.inkscape.org/namespaces/inkscape"
   width="210mm"
   height="297mm"
   viewBox="0 0 210 297"
   version="1.1"
   id="svg8"
   inkscape:version="1.0.1 (c497b03c, 2020-09-10)"
   sodipodi:docname="dessin-alien.svg"
   inkscape:export-filename="/Users/alinahumster/Documents/Documents - Alina’s MacBook Air/Onedrive - used to be/2020-2021 ENS/ME online experiment/Experiment-online/stimuli_task/funnel500.png"
   inkscape:export-xdpi="87.682495"
   inkscape:export-ydpi="87.682495">
  <defs
     id="defs2" />
  <sodipodi:namedview
     id="base"
     pagecolor="#ffffff"
     bordercolor="#666666"
     borderopacity="1.0"
     inkscape:pageopacity="0.0"
     inkscape:pageshadow="2"
     inkscape:zoom="0.92451108"
     inkscape:cx="380.33738"
     inkscape:cy="592.76598"
     inkscape:document-units="mm"
     inkscape:current-layer="layer1"
     inkscape:document-rotation="0"
     showgrid="false"
     inkscape:window-width="1411"
     inkscape:window-height="855"
     inkscape:window-x="0"
     inkscape:window-y="23"
     inkscape:window-maximized="0"
     showguides="true" />
  <metadata
     id="metadata5">
    <rdf:RDF>
      <cc:Work
         rdf:about="">
        <dc:format>image/svg+xml</dc:format>
        <dc:type
           rdf:resource="http://purl.org/dc/dcmitype/StillImage" />
        <dc:title></dc:title>
      </cc:Work>
    </rdf:RDF>
  </metadata>
  <g
     inkscape:label="Calque 1"
     inkscape:groupmode="layer"
     id="layer1">
    <path
       style="opacity:0.503916;fill:#ff0000;stroke-width:1"
       d="m 674.81055,416.08008 a 272.89324,26.565933 0 0 1 0.002,0.0195 l 0.0195,-0.0195 z"
       transform="scale(0.26458333)"
       id="path1002" />
    <path
       style="opacity:0.503916;fill:#ff0000;stroke-width:1"
       d="m 129.04492,416.08008 0.0176,0.0176 a 272.89324,26.565933 0 0 1 0.002,-0.0176 z"
       transform="scale(0.26458333)"
       id="rect837" />
    <path
       style="opacity:0.746736;fill:#6c6c6c;fill-opacity:1;stroke:#cccccc;stroke-width:0.434758"
       d="m 177.20618,110.17461 a 72.203003,7.028903 0 0 1 -72.203,7.0289 72.203003,7.028903 0 0 1 -72.203003,-7.0289 72.203003,7.028903 0 0 1 72.203003,-7.02891 72.203003,7.028903 0 0 1 72.203,7.02891 z"
       id="path892" />
    <path
       style="opacity:0.746736;fill:#b3b3b3;stroke-width:0.125548"
       d="m 127.19679,161.37727 a 20.850569,2.0297859 0 0 1 -20.85057,2.02979 20.850569,2.0297859 0 0 1 -20.850567,-2.02979 20.850569,2.0297859 0 0 1 20.850567,-2.02978 20.850569,2.0297859 0 0 1 20.85057,2.02978 z"
       id="ellipse972" />
    <path
       id="path1004"
       style="opacity:1;fill:#cccccc;stroke:#cccccc;stroke-width:0.264583"
       d="m 34.322481,111.61024 49.846052,49.84605 5.16e-4,5.2e-4 a 20.850569,2.0297859 0 0 0 20.833871,1.95027 20.850569,2.0297859 0 0 0 20.83904,-1.96164 20.850568,2.0297858 0 0 1 -0.004,0.0103 l 49.8445,-49.84451 a 72.203002,7.028903 0 0 1 -70.67992,5.59243 72.203002,7.028903 0 0 1 -70.680439,-5.59346 z m 70.029829,47.73817 a 20.850569,2.0297859 0 0 0 -0.46664,0.002 20.850568,2.0297858 0 0 1 0.46664,-0.002 z m -0.70228,0.003 a 20.850569,2.0297859 0 0 0 -0.4656,0.004 20.850568,2.0297858 0 0 1 0.4656,-0.004 z m -1.16634,0.0109 a 20.850569,2.0297859 0 0 0 -0.69504,0.009 20.850568,2.0297858 0 0 1 0.69504,-0.009 z m -0.92759,0.0129 a 20.850569,2.0297859 0 0 0 -0.68988,0.0124 20.850568,2.0297858 0 0 1 0.68988,-0.0124 z m 6.94893,10e-4 a 20.850568,2.0297858 0 0 1 0.68265,0.0124 20.850569,2.0297859 0 0 0 -0.68265,-0.0124 z m -7.8698,0.016 a 20.850569,2.0297859 0 0 0 -0.683164,0.0155 20.850568,2.0297858 0 0 1 0.683164,-0.0155 z m 9.24853,0.0114 a 20.850568,2.0297858 0 0 1 0.66921,0.0171 20.850569,2.0297859 0 0 0 -0.66921,-0.0171 z m -10.160103,0.01 a 20.850569,2.0297859 0 0 0 -0.45062,0.0119 20.850568,2.0297858 0 0 1 0.45062,-0.0119 z m 11.060823,0.0134 a 20.850568,2.0297858 0 0 1 0.67179,0.0202 20.850569,2.0297859 0 0 0 -0.67179,-0.0202 z m -11.737786,0.005 a 20.850569,2.0297859 0 0 0 -0.445968,0.0134 20.850568,2.0297858 0 0 1 0.445968,-0.0134 z m -0.447516,0.0134 a 20.850569,2.0297859 0 0 0 -0.442868,0.0145 20.850568,2.0297858 0 0 1 0.442868,-0.0145 z m -0.444418,0.0145 a 20.850569,2.0297859 0 0 0 -0.439251,0.0155 20.850568,2.0297858 0 0 1 0.439251,-0.0155 z m -0.440801,0.0155 a 20.850569,2.0297859 0 0 0 -0.65319,0.0248 20.850568,2.0297858 0 0 1 0.65319,-0.0248 z m 16.570051,0.0842 a 20.850568,2.0297858 0 0 1 0.39687,0.0196 20.850569,2.0297859 0 0 0 -0.39687,-0.0196 z m 0.41806,0.0207 a 20.850568,2.0297858 0 0 1 0.39067,0.0207 20.850569,2.0297859 0 0 0 -0.39067,-0.0207 z m -19.754351,0.0186 a 20.850569,2.0297859 0 0 0 -0.406694,0.0222 20.850568,2.0297858 0 0 1 0.406694,-0.0222 z m 20.360511,0.0134 a 20.850568,2.0297858 0 0 1 0.40463,0.0232 20.850569,2.0297859 0 0 0 -0.40463,-0.0232 z m -20.97081,0.0207 a 20.850569,2.0297859 0 0 0 -0.398425,0.0238 20.850568,2.0297858 0 0 1 0.398425,-0.0238 z m -0.597379,0.0357 a 20.850569,2.0297859 0 0 0 -0.390157,0.0253 20.850568,2.0297858 0 0 1 0.390157,-0.0253 z m 22.766049,0.0155 a 20.850568,2.0297858 0 0 1 0.57981,0.0387 20.850568,2.0297858 0 0 1 0.37879,0.0269 20.850569,2.0297859 0 0 0 -0.37879,-0.0269 20.850569,2.0297859 0 0 0 -0.57981,-0.0387 z m -24.296187,0.0899 a 20.850569,2.0297859 0 0 0 -0.365352,0.0284 20.850568,2.0297858 0 0 1 0.365352,-0.0284 z m 25.824257,0.0186 a 20.850568,2.0297858 0 0 1 0.52866,0.0424 20.850569,2.0297859 0 0 0 -0.52866,-0.0424 z m -26.551345,0.0393 a 20.850569,2.0297859 0 0 0 -0.351917,0.03 20.850568,2.0297858 0 0 1 0.351917,-0.03 z m 28.297495,0.11317 a 20.850568,2.0297858 0 0 1 0.29766,0.0295 20.850569,2.0297859 0 0 0 -0.29766,-0.0295 z m 0.32918,0.0326 a 20.850568,2.0297858 0 0 1 0.30282,0.032 20.850569,2.0297859 0 0 0 -0.30282,-0.032 z m -30.321146,0.0114 a 20.850569,2.0297859 0 0 0 -0.315743,0.0336 20.850568,2.0297858 0 0 1 0.315743,-0.0336 z m 31.404286,0.10904 a 20.850568,2.0297858 0 0 1 0.27595,0.0336 20.850569,2.0297859 0 0 0 -0.27595,-0.0336 z m -32.766475,0.0475 a 20.850569,2.0297859 0 0 0 -0.279053,0.0367 20.850568,2.0297858 0 0 1 0.279053,-0.0367 z m 33.185055,0.004 a 20.850568,2.0297858 0 0 1 0.27905,0.0367 20.850569,2.0297859 0 0 0 -0.27905,-0.0367 z m 0.54984,0.0739 a 20.850568,2.0297858 0 0 1 0.49816,0.0739 20.850569,2.0297859 0 0 0 -0.49816,-0.0739 z m -34.92707,0.0915 a 20.850569,2.0297859 0 0 0 -0.356569,0.0589 20.850568,2.0297858 0 0 1 0.356569,-0.0589 z m 35.80505,0.0434 a 20.850568,2.0297858 0 0 1 0.23047,0.0398 20.850569,2.0297859 0 0 0 -0.23047,-0.0398 z m -36.607587,0.0956 a 20.850569,2.0297859 0 0 0 -0.207222,0.0408 20.850568,2.0297858 0 0 1 0.207222,-0.0408 z m 37.166727,0.005 a 20.850568,2.0297858 0 0 1 0.20722,0.0408 20.850569,2.0297859 0 0 0 -0.20722,-0.0408 z m 0.40514,0.0822 a 20.850568,2.0297858 0 0 1 0.1881,0.0419 20.850569,2.0297859 0 0 0 -0.1881,-0.0419 z m -38.34753,0.0791 a 20.850569,2.0297859 0 0 0 -0.169498,0.0429 20.850568,2.0297858 0 0 1 0.169498,-0.0429 z m 38.8829,0.0475 a 20.850568,2.0297858 0 0 1 0.15865,0.0429 20.850569,2.0297859 0 0 0 -0.15865,-0.0429 z m 0.44648,0.12971 a 20.850568,2.0297858 0 0 1 0.12868,0.0439 20.850569,2.0297859 0 0 0 -0.12868,-0.0439 z m 0.18965,0.0661 a 20.850568,2.0297858 0 0 1 0.11318,0.0439 20.850569,2.0297859 0 0 0 -0.11318,-0.0439 z m 0.1664,0.0661 a 20.850568,2.0297858 0 0 1 0.14315,0.0672 20.850569,2.0297859 0 0 0 -0.14315,-0.0672 z m 0.22583,0.11214 a 20.850568,2.0297858 0 0 1 0.0724,0.045 20.850569,2.0297859 0 0 0 -0.0724,-0.045 z m 0.10439,0.0677 a 20.850568,2.0297858 0 0 1 0.0811,0.0677 20.850569,2.0297859 0 0 0 -0.0811,-0.0677 z m -41.454322,0.10801 a 20.850569,2.0297859 0 0 0 -0.03152,0.0455 20.850568,2.0297858 0 0 1 0.03152,-0.0455 z m 41.636732,0.15968 a 20.850568,2.0297858 0 0 1 -0.005,0.0455 20.850569,2.0297859 0 0 0 0.005,-0.0455 z m -41.695126,0.0486 a 20.850569,2.0297859 0 0 0 0.0036,0.0124 20.850568,2.0297858 0 0 1 -0.0036,-0.0124 z" />
    <g
       id="g1204"
       transform="matrix(0.7301845,0,0,0.7301845,28.331485,42.216509)">
      <g
         id="g1148"
         transform="translate(15.978119,5.6871271)">
        <path
           id="rect1075"
           style="opacity:1;fill:#00c100;fill-opacity:1;stroke:#cccccc;stroke-width:0.225319"
           d="m 54.274258,188.21988 c -2.348227,-9.72559 -3.320113,-20.2661 3.54852,-29.80469 8.398535,-11.66319 22.232998,-14.42372 31.259462,-14.42372 8.81538,0 22.41871,3.18558 30.77527,14.42372 7.19805,9.68014 6.30774,20.04081 4.03271,29.80469 -2.11084,9.0592 -6.80466,19.48546 -14.4649,30.04067 -9.45433,13.02733 -19.333092,21.68502 -20.34308,21.68502 -0.966773,0 -10.113404,-9.43759 -19.158796,-21.68502 -8.060835,-10.91434 -13.35071,-20.52113 -15.649186,-30.04067 z"
           sodipodi:nodetypes="sssssssss" />
        <path
           id="path1078"
           style="opacity:0.488251;fill:#00ff00;fill-opacity:1;stroke:#cccccc;stroke-width:0.203568"
           d="m 57.628881,187.32672 c -2.121543,-8.78674 -2.999609,-18.30974 3.205968,-26.92753 7.587793,-10.5373 20.086763,-13.03134 28.241868,-13.03134 7.9644,0 20.254543,2.87806 27.804423,13.03134 6.50319,8.74568 5.69883,18.1062 3.64341,26.92753 -1.90707,8.18468 -6.14777,17.60446 -13.06854,27.14073 -8.541683,11.76975 -17.466803,19.59168 -18.379293,19.59168 -0.873447,0 -9.137119,-8.52654 -17.309325,-19.59168 C 64.4847,204.60671 59.705476,195.9273 57.628881,187.32672 Z"
           sodipodi:nodetypes="sssssssss" />
      </g>
      <g
         id="g1186"
         transform="translate(16.339667,5.9623322)">
        <g
           id="g1144"
           transform="translate(-25.70724,20.785764)">
          <path
             style="opacity:0.984334;fill:#000000;fill-opacity:1;stroke:#cccccc;stroke-width:0.227398"
             d="m 83.613672,156.57891 c 0,0 0.674604,15.96806 5.843525,21.13697 5.168932,5.16892 21.136983,5.84353 21.136983,5.84353 0,0 -0.006,-0.10233 -0.007,-0.11592 -0.14198,-0.0205 -0.27467,-0.0369 -0.41837,-0.0582 -0.0382,-0.82072 -0.80586,-15.95763 -5.83509,-20.98686 -4.782161,-4.78214 -18.648194,-5.70636 -20.720388,-5.81954 z"
             id="path1120" />
          <path
             id="path1123"
             style="opacity:0.981723;fill:#ffffff;fill-opacity:1;stroke:#cccccc;stroke-width:0.194711"
             d="m 85.249575,159.18357 c 0,0 0.580916,13.59531 5.031995,17.99616 4.451076,4.40085 18.20155,4.97521 18.20155,4.97521 0,0 -0.005,-0.0834 -0.005,-0.0972 -0.11736,-0.0168 -0.35109,-0.0498 -0.35109,-0.0498 0.35635,0.14702 0.35635,0.14702 -0.008,-8.6e-4 -5.86543,-0.86042 -13.469674,-2.46181 -16.768094,-5.96634 -3.359985,-3.56993 -1.986635,-13.9744 -6.09943,-16.85681 z"
             sodipodi:nodetypes="csccccscc" />
          <circle
             style="opacity:0.984334;fill:#ffffff;fill-opacity:1;stroke:#cccccc;stroke-width:0.264583"
             id="path1127"
             cx="93.430313"
             cy="166.17581"
             r="1.5339304" />
          <ellipse
             style="opacity:0.984334;fill:#ffffff;fill-opacity:1;stroke:#cccccc;stroke-width:0.264583"
             id="path1129"
             cx="91.082932"
             cy="163.7122"
             rx="0.72048253"
             ry="0.74372381" />
          <circle
             style="opacity:0.984334;fill:#ffffff;fill-opacity:1;stroke:#cccccc;stroke-width:0.264583"
             id="path1133"
             cx="104.63264"
             cy="176.95979"
             r="0.46482739" />
        </g>
        <g
           id="g1172"
           transform="matrix(-1,0,0,1,203.03426,20.785764)">
          <path
             style="opacity:0.984334;fill:#000000;fill-opacity:1;stroke:#cccccc;stroke-width:0.227398"
             d="m 83.613672,156.57891 c 0,0 0.674604,15.96806 5.843525,21.13697 5.168932,5.16892 21.136983,5.84353 21.136983,5.84353 0,0 -0.006,-0.10233 -0.007,-0.11592 -0.14198,-0.0205 -0.27467,-0.0369 -0.41837,-0.0582 -0.0382,-0.82072 -0.80586,-15.95763 -5.83509,-20.98686 -4.782161,-4.78214 -18.648194,-5.70636 -20.720388,-5.81954 z"
             id="path1162" />
          <path
             id="path1164"
             style="opacity:0.981723;fill:#ffffff;fill-opacity:1;stroke:#cccccc;stroke-width:0.194711"
             d="m 85.249575,159.18357 c 0,0 0.580916,13.59531 5.031995,17.99616 4.451076,4.40085 18.20155,4.97521 18.20155,4.97521 0,0 -0.005,-0.0834 -0.005,-0.0972 -0.11736,-0.0168 -0.35109,-0.0498 -0.35109,-0.0498 0.35635,0.14702 0.35635,0.14702 -0.008,-8.6e-4 -5.86543,-0.86042 -13.469674,-2.46181 -16.768094,-5.96634 -3.359985,-3.56993 -1.986635,-13.9744 -6.09943,-16.85681 z"
             sodipodi:nodetypes="csccccscc" />
          <circle
             style="opacity:0.984334;fill:#ffffff;fill-opacity:1;stroke:#cccccc;stroke-width:0.264583"
             id="circle1166"
             cx="93.430313"
             cy="166.17581"
             r="1.5339304" />
          <ellipse
             style="opacity:0.984334;fill:#ffffff;fill-opacity:1;stroke:#cccccc;stroke-width:0.264583"
             id="ellipse1168"
             cx="91.082932"
             cy="163.7122"
             rx="0.72048253"
             ry="0.74372381" />
          <circle
             style="opacity:0.984334;fill:#ffffff;fill-opacity:1;stroke:#cccccc;stroke-width:0.264583"
             id="circle1170"
             cx="104.63264"
             cy="176.95979"
             r="0.46482739" />
        </g>
      </g>
    </g>
    <path
       id="path1208"
       style="opacity:0.984334;fill:#000000;fill-opacity:1;stroke:#cccccc;stroke-width:0.264583"
       d="m 105.00337,205.18899 a 2.7281367,2.7281367 0 0 0 -2.72852,2.728 2.7281367,2.7281367 0 0 0 0.006,0.16536 h 5.44566 a 2.7281367,2.7281367 0 0 0 0.005,-0.16536 2.7281367,2.7281367 0 0 0 -2.728,-2.728 z" />
  </g>
</svg>
